<?xml version="1.0" standalone="no"?>
<!DOCTYPE svg PUBLIC "-//W3C//DTD SVG 20010904//EN"
 "http://www.w3.org/TR/2001/REC-SVG-20010904/DTD/svg10.dtd">
<svg version="1.0" xmlns="http://www.w3.org/2000/svg"
 width="480.000000pt" height="480.000000pt" viewBox="0 0 480.000000 480.000000"
 preserveAspectRatio="xMidYMid meet">
<metadata>
Created by potrace 1.14, written by Peter Selinger 2001-2017
</metadata>
<g transform="translate(0.000000,480.000000) scale(0.100000,-0.100000)"
fill="#000000" stroke="none">
<path d="M0 2400 l0 -2400 2400 0 2400 0 0 2400 0 2400 -2400 0 -2400 0 0
-2400z m2298 1303 c-3 -26 -8 -28 -148 -63 -175 -42 -207 -59 -240 -125 l-25
-50 0 -1085 0 -1085 25 -50 c33 -66 65 -83 240 -125 140 -35 145 -37 148 -63
l3 -27 -656 0 -656 0 3 27 c3 26 8 28 148 63 175 42 207 59 240 125 l25 50 0
1085 0 1085 -25 50 c-33 66 -65 83 -240 125 -140 35 -145 37 -148 63 l-3 27
656 0 656 0 -3 -27z m1422 -1 c0 -27 -4 -29 -97 -56 -139 -40 -208 -76 -309
-165 -98 -85 -929 -901 -929 -911 0 -16 905 -1021 1049 -1166 202 -202 271
-252 406 -290 95 -28 100 -30 100 -56 l0 -28 -394 0 -393 0 -597 697 -596 698
403 400 c404 400 510 516 553 610 30 64 30 96 -1 133 -31 37 -73 54 -208 83
-105 23 -107 24 -107 51 l0 28 560 0 560 0 0 -28z"/>
</g>
</svg>
