<?xml version="1.0" standalone="no"?>
<!DOCTYPE svg PUBLIC "-//W3C//DTD SVG 20010904//EN"
 "http://www.w3.org/TR/2001/REC-SVG-20010904/DTD/svg10.dtd">
<svg version="1.0" xmlns="http://www.w3.org/2000/svg"
 width="260.000000pt" height="260.000000pt" viewBox="0 0 260.000000 260.000000"
 preserveAspectRatio="xMidYMid meet">
<metadata>
Created by potrace 1.14, written by Peter Selinger 2001-2017
</metadata>
<g transform="translate(0.000000,260.000000) scale(0.100000,-0.100000)"
fill="#000000" stroke="none">
<path d="M0 1300 l0 -1300 1300 0 1300 0 0 1300 0 1300 -1300 0 -1300 0 0
-1300z m2093 516 c172 -58 300 -183 353 -342 27 -83 27 -275 0 -358 -71 -215
-275 -360 -526 -373 -278 -14 -508 131 -592 375 -18 54 -23 88 -23 177 0 128
22 206 84 302 74 114 209 206 351 238 99 22 255 14 353 -19z m-1478 -267 l230
-280 3 280 2 281 145 0 145 0 0 -535 0 -535 -122 1 -123 0 -215 265 c-118 146
-223 272 -232 281 -17 15 -18 2 -18 -265 l0 -282 -145 0 -145 0 0 535 0 535
123 0 122 0 230 -281z"/>
<path d="M1795 1582 c-77 -26 -121 -66 -157 -140 -29 -58 -33 -76 -33 -147 0
-71 4 -88 33 -147 64 -130 201 -187 341 -141 68 22 124 71 158 141 24 50 28
69 28 147 0 78 -4 97 -28 147 -64 130 -205 188 -342 140z"/>
</g>
</svg>
